# This file uses centimeters as units for non-parametric coordinates.

mtllib bOMBA.mtl
g default
v -1.047832 -1.047833 2.195872
v 1.047832 -1.047833 2.195872
v -1.047832 1.047832 2.195872
v 1.047832 1.047832 2.195872
v -1.047832 1.047832 1.392228
v 1.047832 1.047832 1.392228
v -1.047832 -1.047833 1.392228
v 1.047832 -1.047833 1.392228
v -0.970265 0.970265 1.392228
v 0.970265 0.970265 1.392228
v 0.970265 -0.970266 1.392228
v -0.970265 -0.970266 1.392228
v -0.970265 0.970265 2.070467
v 0.970265 0.970265 2.070467
v 0.970265 -0.970266 2.070467
v -0.970265 -0.970266 2.070467
v 0.054692 -0.979723 2.097079
v 0.054692 0.979723 2.097079
v 0.054692 -0.000000 0.021184
v -0.054692 0.979723 2.097079
v -0.054692 -0.000000 0.021184
v -0.054692 -0.979723 2.097079
v -0.919015 -0.996362 2.097079
v 0.996362 0.919015 2.097079
v 0.038673 -0.038674 0.021184
v 0.919015 0.996362 2.097079
v -0.038674 0.038673 0.021184
v -0.996362 -0.919015 2.097079
v 0.996362 -0.919015 2.097079
v -0.919015 0.996362 2.097079
v 0.038674 0.038673 0.021184
v -0.996362 0.919015 2.097079
v -0.038673 -0.038674 0.021184
v 0.919015 -0.996362 2.097079
v 0.837158 -0.527778 0.408659
v 0.483333 -0.914138 0.408659
v 0.000000 -1.055556 0.408659
v -0.483333 -0.914138 0.408659
v -0.837158 -0.527778 0.408659
v -0.966667 -0.000000 0.408659
v -0.837158 0.527777 0.408659
v -0.483333 0.914137 0.408659
v 0.000000 1.055555 0.408659
v 0.483333 0.914137 0.408659
v 0.837158 0.527777 0.408659
v 0.966667 -0.000000 0.408659
v 0.866025 -0.500000 -1.242547
v 0.500000 -0.866026 -1.242547
v 0.000000 -1.000000 -1.242547
v -0.500000 -0.866026 -1.242547
v -0.866025 -0.500000 -1.242547
v -1.000000 -0.000000 -1.242547
v -0.866025 0.500000 -1.242547
v -0.500000 0.866025 -1.242547
v 0.000000 1.000000 -1.242547
v 0.500000 0.866025 -1.242547
v 0.866025 0.500000 -1.242547
v 1.000000 -0.000000 -1.242547
v 0.676625 -0.390650 -1.719077
v 0.390650 -0.676625 -1.719077
v 0.000000 -0.781300 -1.719077
v -0.390650 -0.676625 -1.719077
v -0.676625 -0.390650 -1.719077
v -0.781299 -0.000000 -1.719077
v -0.676625 0.390650 -1.719077
v -0.390650 0.676625 -1.719077
v 0.000000 0.781300 -1.719077
v 0.390650 0.676625 -1.719077
v 0.676625 0.390650 -1.719077
v 0.781299 -0.000000 -1.719077
v 0.337557 -0.194889 -2.038527
v 0.194889 -0.337557 -2.038527
v 0.000000 -0.389777 -2.038527
v -0.194889 -0.337557 -2.038527
v -0.337557 -0.194889 -2.038527
v -0.389777 -0.000000 -2.038527
v -0.337557 0.194889 -2.038527
v -0.194889 0.337557 -2.038527
v 0.000000 0.389777 -2.038527
v 0.194889 0.337557 -2.038527
v 0.337557 0.194889 -2.038527
v 0.389777 -0.000000 -2.038527
v 0.163187 -0.094216 -2.153498
v 0.094216 -0.163187 -2.153498
v 0.000000 -0.000000 -2.195872
v 0.000000 -0.188432 -2.153498
v -0.094216 -0.163187 -2.153498
v -0.163187 -0.094216 -2.153498
v -0.188432 -0.000000 -2.153498
v -0.163187 0.094216 -2.153498
v -0.094216 0.163187 -2.153498
v 0.000000 0.188432 -2.153498
v 0.094216 0.163187 -2.153498
v 0.163187 0.094216 -2.153498
v 0.188432 -0.000000 -2.153498
v 0.732348 -0.422821 0.774617
v 0.422821 -0.732348 0.774617
v 0.000000 -0.845642 0.774617
v -0.422821 -0.732348 0.774617
v -0.732348 -0.422821 0.774617
v -0.845642 -0.000000 0.774617
v -0.732348 0.422821 0.774617
v -0.422821 0.732347 0.774617
v 0.000000 0.845642 0.774617
v 0.422821 0.732347 0.774617
v 0.732348 0.422821 0.774617
v 0.845642 -0.000000 0.774617
v 0.541808 -0.312813 1.113943
v 0.312813 -0.541809 1.113943
v 0.000000 -0.625627 1.113943
v -0.312813 -0.541809 1.113943
v -0.541808 -0.312813 1.113943
v -0.625627 -0.000000 1.113943
v -0.541808 0.312813 1.113943
v -0.312813 0.541808 1.113943
v 0.000000 0.625627 1.113943
v 0.312813 0.541808 1.113943
v 0.541808 0.312813 1.113943
v 0.625627 -0.000000 1.113943
v 0.866025 0.599803 -0.608727
v 0.500000 1.038889 -0.608727
v 0.000000 1.199607 -0.608727
v -0.500000 1.038889 -0.608727
v -0.866025 0.599803 -0.608727
v -1.000000 -0.000000 -0.608727
v -0.866025 -0.599804 -0.608727
v -0.500000 -1.038890 -0.608727
v 0.000000 -1.199607 -0.608727
v 0.500000 -1.038890 -0.608727
v 0.866025 -0.599804 -0.608727
v 1.000000 -0.000000 -0.608727
v 0.866025 0.599803 0.025094
v 0.500000 1.038889 0.025094
v 0.000000 1.199607 0.025094
v -0.500000 1.038889 0.025094
v -0.866025 0.599803 0.025094
v -1.000000 -0.000000 0.025094
v -0.866025 -0.599804 0.025094
v -0.500000 -1.038890 0.025094
v 0.000000 -1.199607 0.025094
v 0.500000 -1.038890 0.025094
v 0.866025 -0.599804 0.025094
v 1.000000 -0.000000 0.025094
v 0.404667 -0.233634 2.097079
v 0.233635 -0.404667 2.097079
v 0.000000 -0.467269 2.097079
v -0.233635 -0.404667 2.097079
v -0.404667 -0.233634 2.097079
v -0.467269 -0.000000 2.097079
v -0.404667 0.233634 2.097079
v -0.233635 0.404667 2.097079
v 0.000000 0.467269 2.097079
v 0.233635 0.404667 2.097079
v 0.404667 0.233634 2.097079
v 0.467269 -0.000000 2.097079
v -0.979723 -0.054693 2.097079
v 0.979723 -0.054693 2.097079
v -0.000000 -0.054693 0.021184
v 0.979723 0.054692 2.097079
v -0.000000 0.054692 0.021184
v -0.979723 0.054692 2.097079
vt 0.279357 0.384420
vt 0.279357 0.562643
vt 0.101134 0.562643
vt 0.101134 0.384420
vt 0.249620 0.757258
vt 0.249620 0.935481
vt 0.414159 0.342552
vt 0.579189 0.342552
vt 0.579189 0.507582
vt 0.414159 0.507582
vt 0.427843 0.935481
vt 0.427843 0.757258
vt 0.636869 0.342552
vt 0.414159 0.284872
vt 0.579189 0.565262
vt 0.356479 0.507582
vt 0.421247 0.928885
vt 0.414159 0.565262
vt 0.421247 0.763855
vt 0.636869 0.507582
vt 0.256217 0.763855
vt 0.579189 0.284872
vt 0.256217 0.928885
vt 0.356479 0.342552
vt 0.347702 0.562643
vt 0.279357 0.630988
vt 0.279357 0.316075
vt 0.347702 0.384420
vt 0.101134 0.630988
vt 0.032789 0.562643
vt 0.032789 0.384420
vt 0.101134 0.316075
vt 0.334692 0.944235
vt 0.529908 0.944235
vt 0.529908 0.953537
vt 0.334692 0.953538
vt 0.725124 0.944235
vt 0.725124 0.953537
vt 0.824377 0.644478
vt 0.907697 0.467936
vt 0.991016 0.644478
vt 0.642820 0.326211
vt 0.713943 0.175512
vt 0.838036 0.326211
vt 0.288006 0.574015
vt 0.498799 0.574015
vt 0.498799 0.583318
vt 0.288006 0.583318
vt 0.709592 0.574015
vt 0.709592 0.583318
vt 0.628296 0.543380
vt 0.743477 0.366839
vt 0.858658 0.543380
vt 0.032789 0.950177
vt 0.158663 0.757246
vt 0.243582 0.950177
vt 0.301493 0.592071
vt 0.512286 0.592071
vt 0.512286 0.601374
vt 0.301493 0.601374
vt 0.723079 0.592071
vt 0.723079 0.601374
vt 0.508987 0.911517
vt 0.624168 0.734975
vt 0.739349 0.911516
vt 0.644895 0.745053
vt 0.770769 0.552122
vt 0.855688 0.745053
vt 0.437029 0.225576
vt 0.472778 0.203072
vt 0.497087 0.227363
vt 0.456592 0.252627
vt 0.503338 0.174114
vt 0.529778 0.197282
vt 0.059285 0.174927
vt 0.089816 0.203685
vt 0.065418 0.227884
vt 0.032789 0.197882
vt 0.125452 0.225799
vt 0.105746 0.252788
vt 0.164093 0.243455
vt 0.150847 0.273752
vt 0.203372 0.257968
vt 0.196483 0.290630
vt 0.242262 0.268174
vt 0.239634 0.302640
vt 0.280848 0.272189
vt 0.280567 0.307322
vt 0.319519 0.268307
vt 0.321645 0.302852
vt 0.358622 0.258145
vt 0.365105 0.290930
vt 0.398162 0.243522
vt 0.411182 0.273929
vt 0.078131 0.094161
vt 0.082155 0.101296
vt 0.066827 0.105237
vt 0.082071 0.109488
vt 0.077903 0.116540
vt 0.070767 0.120564
vt 0.062576 0.120481
vt 0.055523 0.116312
vt 0.051500 0.109177
vt 0.051583 0.100985
vt 0.055751 0.093933
vt 0.062887 0.089909
vt 0.071079 0.089992
vt 0.847395 0.154172
vt 0.859335 0.199127
vt 0.814971 0.205011
vt 0.807238 0.173054
vt 0.857677 0.244630
vt 0.812056 0.238570
vt 0.591428 0.286488
vt 0.576952 0.244449
vt 0.620301 0.236370
vt 0.632652 0.268060
vt 0.574348 0.198703
vt 0.618247 0.203411
vt 0.586245 0.153852
vt 0.626639 0.171907
vt 0.612012 0.114945
vt 0.644636 0.144904
vt 0.649039 0.086339
vt 0.670354 0.125186
vt 0.693373 0.071198
vt 0.701056 0.114840
vt 0.740247 0.071198
vt 0.733460 0.114981
vt 0.784609 0.086369
vt 0.764083 0.125619
vt 0.821655 0.115085
vt 0.789612 0.145664
vt 0.771896 0.206698
vt 0.767423 0.189482
vt 0.769897 0.223838
vt 0.662415 0.225562
vt 0.669456 0.241726
vt 0.661272 0.207592
vt 0.665990 0.190054
vt 0.676064 0.174902
vt 0.690450 0.163772
vt 0.707635 0.157856
vt 0.725794 0.157783
vt 0.742993 0.163551
vt 0.757392 0.174524
vt 0.091745 0.080319
vt 0.100866 0.096116
vt 0.100866 0.114357
vt 0.091745 0.130154
vt 0.075948 0.139275
vt 0.057707 0.139275
vt 0.041910 0.130154
vt 0.032789 0.114357
vt 0.032789 0.096116
vt 0.041910 0.080319
vt 0.057707 0.071198
vt 0.075948 0.071198
vt 0.416990 0.198282
vt 0.447152 0.178499
vt 0.473640 0.152556
vt 0.088974 0.153823
vt 0.115345 0.179053
vt 0.145401 0.198450
vt 0.177297 0.213517
vt 0.210657 0.224852
vt 0.245338 0.232374
vt 0.280988 0.234926
vt 0.316662 0.232468
vt 0.351474 0.224972
vt 0.384953 0.213559
vt 0.398384 0.168513
vt 0.423245 0.152641
vt 0.444682 0.134129
vt 0.116758 0.135938
vt 0.138832 0.153829
vt 0.164086 0.169177
vt 0.191581 0.181676
vt 0.220642 0.191087
vt 0.250752 0.197057
vt 0.281416 0.199100
vt 0.312074 0.197051
vt 0.342140 0.191004
vt 0.371099 0.181378
vt 0.366877 0.693847
vt 0.414306 0.693846
vt 0.414306 0.748505
vt 0.366877 0.748505
vt 0.320323 0.693846
vt 0.320323 0.748505
vt 0.273527 0.693846
vt 0.273527 0.748505
vt 0.225291 0.693847
vt 0.225291 0.748505
vt 0.175633 0.693847
vt 0.175633 0.748505
vt 0.126070 0.693846
vt 0.126070 0.748505
vt 0.078189 0.693846
vt 0.078189 0.748505
vt 0.032789 0.693846
vt 0.032789 0.748505
vt 0.557352 0.693846
vt 0.600943 0.693846
vt 0.600943 0.748505
vt 0.557352 0.748505
vt 0.510981 0.693846
vt 0.510981 0.748505
vt 0.462725 0.693846
vt 0.462725 0.748505
vt 0.366877 0.639741
vt 0.414306 0.639741
vt 0.320323 0.639741
vt 0.273527 0.639741
vt 0.225291 0.639741
vt 0.175633 0.639741
vt 0.126070 0.639741
vt 0.078189 0.639741
vt 0.032789 0.639741
vt 0.557352 0.639741
vt 0.600943 0.639741
vt 0.510981 0.639741
vt 0.462725 0.639741
vt 0.358935 0.093625
vt 0.376418 0.083253
vt 0.392839 0.071197
vt 0.166924 0.071197
vt 0.184056 0.082964
vt 0.201969 0.093223
vt 0.220784 0.101598
vt 0.240363 0.107835
vt 0.260460 0.111727
vt 0.280794 0.113110
vt 0.301082 0.111913
vt 0.321045 0.108168
vt 0.340413 0.102007
vt 0.321205 0.610128
vt 0.516420 0.610128
vt 0.516420 0.619430
vt 0.321205 0.619430
vt 0.711636 0.610127
vt 0.711636 0.619430
vt 0.801553 0.431705
vt 0.884872 0.255163
vt 0.968192 0.431705
vt 0.734118 0.951063
vt 0.805240 0.800364
vt 0.929333 0.951063
vn 0.000000 0.000000 1.000000
vn 0.000000 0.000000 1.000000
vn 0.000000 0.000000 1.000000
vn 0.000000 0.000000 1.000000
vn 0.000000 1.000000 0.000000
vn 0.000000 1.000000 0.000000
vn 0.000000 1.000000 0.000000
vn 0.000000 1.000000 0.000000
vn 0.000000 0.000000 -1.000000
vn 0.000000 0.000000 -1.000000
vn 0.000000 0.000000 -1.000000
vn 0.000000 0.000000 -1.000000
vn 0.000000 -1.000000 0.000000
vn 0.000000 -1.000000 0.000000
vn 0.000000 -1.000000 0.000000
vn 0.000000 -1.000000 0.000000
vn 1.000000 0.000000 0.000000
vn 1.000000 0.000000 0.000000
vn 1.000000 0.000000 0.000000
vn 1.000000 0.000000 0.000000
vn -1.000000 0.000000 0.000000
vn -1.000000 0.000000 0.000000
vn -1.000000 0.000000 0.000000
vn -1.000000 0.000000 0.000000
vn 0.000000 0.000000 -1.000000
vn 0.000000 0.000000 -1.000000
vn 0.000000 0.000000 -1.000000
vn 0.000000 0.000000 -1.000000
vn -0.000002 0.000000 -1.000000
vn -0.000002 0.000000 -1.000000
vn -0.000002 0.000000 -1.000000
vn -0.000002 0.000000 -1.000000
vn 0.000000 0.000000 -1.000000
vn 0.000000 0.000000 -1.000000
vn 0.000000 0.000000 -1.000000
vn 0.000000 0.000000 -1.000000
vn 0.000001 0.000000 -1.000000
vn 0.000001 0.000000 -1.000000
vn 0.000001 0.000000 -1.000000
vn 0.000001 0.000000 -1.000000
vn 0.000000 -1.000000 0.000000
vn 0.000000 -1.000000 0.000000
vn 0.000000 -1.000000 0.000000
vn 0.000000 -1.000000 0.000000
vn -1.000000 0.000000 0.000000
vn -1.000000 0.000000 0.000000
vn -1.000000 0.000000 0.000000
vn -1.000000 0.000000 0.000000
vn 0.000000 1.000000 0.000000
vn 0.000000 1.000000 0.000000
vn 0.000000 1.000000 0.000000
vn 0.000000 1.000000 0.000000
vn 1.000000 0.000000 0.000000
vn 1.000000 0.000000 0.000000
vn 1.000000 0.000000 0.000000
vn 1.000000 0.000000 0.000000
vn 0.000000 0.904343 -0.426807
vn 0.000000 0.904343 -0.426807
vn 0.000000 0.904343 -0.426807
vn 0.000000 0.904343 -0.426807
vn 0.000000 -0.904343 -0.426807
vn 0.000000 -0.904343 -0.426807
vn 0.000000 -0.904343 -0.426807
vn 0.000000 -0.904343 -0.426807
vn -1.000000 0.000000 0.000000
vn -1.000000 0.000000 0.000000
vn -1.000000 0.000000 0.000000
vn 1.000000 0.000000 0.000000
vn 1.000000 0.000000 0.000000
vn 1.000000 0.000000 0.000000
vn 0.592212 0.592210 -0.546418
vn 0.592212 0.592210 -0.546418
vn 0.592212 0.592210 -0.546418
vn 0.592212 0.592210 -0.546418
vn -0.592211 -0.592210 -0.546418
vn -0.592211 -0.592210 -0.546418
vn -0.592211 -0.592210 -0.546418
vn -0.592211 -0.592210 -0.546418
vn -0.707107 0.707107 0.000000
vn -0.707107 0.707107 0.000000
vn -0.707107 0.707107 0.000000
vn 0.707107 -0.707107 0.000000
vn 0.707107 -0.707107 0.000000
vn 0.707107 -0.707107 0.000000
vn -0.592212 0.592210 -0.546418
vn -0.592212 0.592210 -0.546418
vn -0.592212 0.592210 -0.546418
vn -0.592212 0.592210 -0.546418
vn 0.592211 -0.592211 -0.546418
vn 0.592211 -0.592210 -0.546418
vn 0.592211 -0.592210 -0.546418
vn 0.592211 -0.592211 -0.546418
vn -0.707107 -0.707107 0.000000
vn -0.707107 -0.707107 0.000000
vn -0.707107 -0.707107 0.000000
vn 0.707107 0.707107 0.000000
vn 0.707107 0.707107 0.000000
vn 0.707107 0.707107 0.000000
vn 0.858589 -0.446292 0.252286
vn 0.505699 -0.786821 0.353809
vn 0.552607 -0.826945 0.103864
vn 0.893375 -0.445410 0.059079
vn 0.000000 -0.914104 0.405481
vn 0.000000 -0.991991 0.126313
vn -0.505699 -0.786821 0.353809
vn -0.552607 -0.826945 0.103864
vn -0.858589 -0.446292 0.252286
vn -0.893375 -0.445410 0.059079
vn -0.979186 -0.000000 0.202967
vn -0.999314 0.000000 0.037041
vn -0.858589 0.446292 0.252286
vn -0.893375 0.445411 0.059079
vn -0.505699 0.786821 0.353809
vn -0.552607 0.826945 0.103865
vn 0.000000 0.914104 0.405481
vn 0.000000 0.991990 0.126313
vn 0.505699 0.786821 0.353809
vn 0.552607 0.826945 0.103865
vn 0.858589 0.446292 0.252286
vn 0.893375 0.445411 0.059079
vn 0.979186 -0.000000 0.202967
vn 0.999314 0.000000 0.037041
vn 0.392139 -0.226402 -0.891610
vn 0.226402 -0.392139 -0.891611
vn 0.000000 -0.000000 -1.000000
vn 0.000000 -0.452803 -0.891611
vn -0.226402 -0.392139 -0.891610
vn -0.392139 -0.226402 -0.891610
vn -0.452803 -0.000000 -0.891611
vn -0.392139 0.226402 -0.891611
vn -0.226402 0.392139 -0.891611
vn 0.000000 0.452803 -0.891611
vn 0.226402 0.392139 -0.891610
vn 0.392139 0.226402 -0.891610
vn 0.452803 -0.000000 -0.891610
vn 0.864786 -0.455449 -0.211453
vn 0.511368 -0.808426 -0.291463
vn 0.416997 -0.722259 -0.551775
vn 0.722259 -0.416997 -0.551775
vn 0.000000 -0.942272 -0.334850
vn 0.000000 -0.833993 -0.551775
vn -0.511368 -0.808426 -0.291463
vn -0.416997 -0.722259 -0.551775
vn -0.864786 -0.455449 -0.211453
vn -0.722259 -0.416997 -0.551775
vn -0.984475 0.000000 -0.175524
vn -0.833993 0.000000 -0.551775
vn -0.864786 0.455449 -0.211453
vn -0.722259 0.416997 -0.551775
vn -0.511368 0.808426 -0.291463
vn -0.416997 0.722259 -0.551775
vn 0.000000 0.942271 -0.334850
vn -0.000000 0.833993 -0.551775
vn 0.511368 0.808426 -0.291463
vn 0.416997 0.722259 -0.551775
vn 0.864786 0.455449 -0.211452
vn 0.722259 0.416997 -0.551775
vn 0.984475 0.000000 -0.175524
vn 0.833993 0.000000 -0.551775
vn 0.306626 -0.531092 -0.789887
vn 0.531092 -0.306626 -0.789887
vn 0.000000 -0.613252 -0.789887
vn -0.306626 -0.531092 -0.789887
vn -0.531092 -0.306626 -0.789887
vn -0.613252 -0.000000 -0.789887
vn -0.531092 0.306626 -0.789887
vn -0.306626 0.531092 -0.789887
vn -0.000000 0.613252 -0.789887
vn 0.306626 0.531092 -0.789887
vn 0.531092 0.306626 -0.789887
vn 0.613252 -0.000000 -0.789887
vn 0.786839 -0.431713 0.441031
vn 0.453207 -0.746687 0.486890
vn 0.000000 -0.860028 0.510247
vn -0.453207 -0.746687 0.486890
vn -0.786839 -0.431713 0.441031
vn -0.908034 -0.000000 0.418896
vn -0.786838 0.431714 0.441031
vn -0.453207 0.746688 0.486889
vn 0.000000 0.860028 0.510247
vn 0.453207 0.746688 0.486889
vn 0.786838 0.431714 0.441031
vn 0.908034 -0.000000 0.418896
vn 0.822940 -0.475125 0.311492
vn 0.475125 -0.822939 0.311492
vn 0.000000 -0.950249 0.311492
vn -0.475125 -0.822939 0.311492
vn -0.822940 -0.475125 0.311492
vn -0.950249 0.000000 0.311492
vn -0.822940 0.475125 0.311492
vn -0.475125 0.822940 0.311491
vn 0.000000 0.950249 0.311492
vn 0.475125 0.822940 0.311491
vn 0.822940 0.475125 0.311492
vn 0.950249 0.000000 0.311492
vn 0.539492 0.834925 -0.108857
vn 0.888035 0.457805 -0.042518
vn 0.000000 0.990002 -0.141056
vn -0.539492 0.834925 -0.108857
vn -0.888035 0.457805 -0.042518
vn -0.999958 0.000000 -0.009174
vn -0.888036 -0.457805 -0.042518
vn -0.539491 -0.834925 -0.108857
vn 0.000000 -0.990002 -0.141056
vn 0.539491 -0.834925 -0.108857
vn 0.888036 -0.457805 -0.042518
vn 0.999958 0.000000 -0.009174
vn 0.855005 -0.493638 0.159024
vn 0.493638 -0.855005 0.159024
vn 0.000000 -0.987275 0.159024
vn -0.493638 -0.855005 0.159024
vn -0.855005 -0.493637 0.159024
vn -0.987275 0.000000 0.159024
vn -0.855005 0.493638 0.159024
vn -0.493637 0.855005 0.159024
vn 0.000000 0.987275 0.159024
vn 0.493637 0.855005 0.159024
vn 0.855005 0.493638 0.159024
vn 0.987275 0.000000 0.159024
vn 0.904343 0.000000 -0.426807
vn 0.904343 0.000000 -0.426807
vn 0.904343 0.000000 -0.426807
vn 0.904343 0.000000 -0.426807
vn -0.904343 0.000000 -0.426807
vn -0.904343 0.000000 -0.426807
vn -0.904343 0.000000 -0.426807
vn -0.904343 0.000000 -0.426807
vn 0.000000 1.000000 -0.000000
vn 0.000000 1.000000 -0.000000
vn 0.000000 1.000000 -0.000000
vn 0.000000 -1.000000 0.000000
vn 0.000000 -1.000000 0.000000
vn 0.000000 -1.000000 0.000000
s off
g Bomba
usemtl initialShadingGroup
f 1/1/1 2/2/2 4/3/3 3/4/4
f 3/4/5 4/3/6 6/30/7 5/31/8
f 13/7/9 14/8/10 15/9/11 16/10/12
f 7/28/13 8/25/14 2/2/15 1/1/16
f 2/2/17 8/26/18 6/29/19 4/3/20
f 7/27/21 1/1/22 3/4/23 5/32/24
f 5/6/25 6/5/26 10/21/27 9/23/28
f 6/5/29 8/12/30 11/19/31 10/21/32
f 8/12/33 7/11/34 12/17/35 11/19/36
f 7/11/37 5/6/38 9/23/39 12/17/40
f 9/14/41 10/22/42 14/8/43 13/7/44
f 10/13/45 11/20/46 15/9/47 14/8/48
f 11/15/49 12/18/50 16/10/51 15/9/52
f 12/16/53 9/24/54 13/7/55 16/10/56
f 18/33/57 19/34/58 21/35/59 20/36/60
f 17/37/61 22/38/62 21/35/63 19/34/64
f 20/39/65 21/40/66 22/41/67
f 18/42/68 17/43/69 19/44/70
f 24/45/71 25/46/72 27/47/73 26/48/74
f 23/49/75 28/50/76 27/47/77 25/46/78
f 26/51/79 27/52/80 28/53/81
f 24/54/82 23/55/83 25/56/84
f 30/57/85 31/58/86 33/59/87 32/60/88
f 29/61/89 34/62/90 33/59/91 31/58/92
f 32/63/93 33/64/94 34/65/95
f 30/66/96 29/67/97 31/68/98
s 1
f 35/69/99 36/70/100 141/71/101 142/72/102
f 36/70/100 37/73/103 140/74/104 141/71/101
f 37/75/103 38/76/105 139/77/106 140/78/104
f 38/76/105 39/79/107 138/80/108 139/77/106
f 39/79/107 40/81/109 137/82/110 138/80/108
f 40/81/109 41/83/111 136/84/112 137/82/110
f 41/83/111 42/85/113 135/86/114 136/84/112
f 42/85/113 43/87/115 134/88/116 135/86/114
f 43/87/115 44/89/117 133/90/118 134/88/116
f 44/89/117 45/91/119 132/92/120 133/90/118
f 45/91/119 46/93/121 143/94/122 132/92/120
f 46/93/121 35/69/99 142/72/102 143/94/122
f 83/95/123 84/96/124 85/97/125
f 84/96/124 86/98/126 85/97/125
f 86/98/126 87/99/127 85/97/125
f 87/99/127 88/100/128 85/97/125
f 88/100/128 89/101/129 85/97/125
f 89/101/129 90/102/130 85/97/125
f 90/102/130 91/103/131 85/97/125
f 91/103/131 92/104/132 85/97/125
f 92/104/132 93/105/133 85/97/125
f 93/105/133 94/106/134 85/97/125
f 94/106/134 95/107/135 85/97/125
f 95/107/135 83/95/123 85/97/125
f 47/108/136 48/109/137 60/110/138 59/111/139
f 48/109/137 49/112/140 61/113/141 60/110/138
f 49/114/140 50/115/142 62/116/143 61/117/141
f 50/115/142 51/118/144 63/119/145 62/116/143
f 51/118/144 52/120/146 64/121/147 63/119/145
f 52/120/146 53/122/148 65/123/149 64/121/147
f 53/122/148 54/124/150 66/125/151 65/123/149
f 54/124/150 55/126/152 67/127/153 66/125/151
f 55/126/152 56/128/154 68/129/155 67/127/153
f 56/128/154 57/130/156 69/131/157 68/129/155
f 57/130/156 58/132/158 70/133/159 69/131/157
f 58/132/158 47/108/136 59/111/139 70/133/159
f 59/111/139 60/110/138 72/134/160 71/135/161
f 60/110/138 61/113/141 73/136/162 72/134/160
f 61/117/141 62/116/143 74/137/163 73/138/162
f 62/116/143 63/119/145 75/139/164 74/137/163
f 63/119/145 64/121/147 76/140/165 75/139/164
f 64/121/147 65/123/149 77/141/166 76/140/165
f 65/123/149 66/125/151 78/142/167 77/141/166
f 66/125/151 67/127/153 79/143/168 78/142/167
f 67/127/153 68/129/155 80/144/169 79/143/168
f 68/129/155 69/131/157 81/145/170 80/144/169
f 69/131/157 70/133/159 82/146/171 81/145/170
f 70/133/159 59/111/139 71/135/161 82/146/171
f 71/147/161 72/148/160 84/96/124 83/95/123
f 72/148/160 73/149/162 86/98/126 84/96/124
f 73/149/162 74/150/163 87/99/127 86/98/126
f 74/150/163 75/151/164 88/100/128 87/99/127
f 75/151/164 76/152/165 89/101/129 88/100/128
f 76/152/165 77/153/166 90/102/130 89/101/129
f 77/153/166 78/154/167 91/103/131 90/102/130
f 78/154/167 79/155/168 92/104/132 91/103/131
f 79/155/168 80/156/169 93/105/133 92/104/132
f 80/156/169 81/157/170 94/106/134 93/105/133
f 81/157/170 82/158/171 95/107/135 94/106/134
f 82/158/171 71/147/161 83/95/123 95/107/135
f 36/70/100 35/69/99 96/159/172 97/160/173
f 37/73/103 36/70/100 97/160/173 98/161/174
f 38/76/105 37/75/103 98/162/174 99/163/175
f 39/79/107 38/76/105 99/163/175 100/164/176
f 40/81/109 39/79/107 100/164/176 101/165/177
f 41/83/111 40/81/109 101/165/177 102/166/178
f 42/85/113 41/83/111 102/166/178 103/167/179
f 43/87/115 42/85/113 103/167/179 104/168/180
f 44/89/117 43/87/115 104/168/180 105/169/181
f 45/91/119 44/89/117 105/169/181 106/170/182
f 46/93/121 45/91/119 106/170/182 107/171/183
f 35/69/99 46/93/121 107/171/183 96/159/172
f 97/160/173 96/159/172 108/172/184 109/173/185
f 98/161/174 97/160/173 109/173/185 110/174/186
f 99/163/175 98/162/174 110/175/186 111/176/187
f 100/164/176 99/163/175 111/176/187 112/177/188
f 101/165/177 100/164/176 112/177/188 113/178/189
f 102/166/178 101/165/177 113/178/189 114/179/190
f 103/167/179 102/166/178 114/179/190 115/180/191
f 104/168/180 103/167/179 115/180/191 116/181/192
f 105/169/181 104/168/180 116/181/192 117/182/193
f 106/170/182 105/169/181 117/182/193 118/183/194
f 107/171/183 106/170/182 118/183/194 119/184/195
f 96/159/172 107/171/183 119/184/195 108/172/184
f 121/185/196 120/186/197 57/187/156 56/188/154
f 122/189/198 121/185/196 56/188/154 55/190/152
f 123/191/199 122/189/198 55/190/152 54/192/150
f 124/193/200 123/191/199 54/192/150 53/194/148
f 125/195/201 124/193/200 53/194/148 52/196/146
f 126/197/202 125/195/201 52/196/146 51/198/144
f 127/199/203 126/197/202 51/198/144 50/200/142
f 128/201/204 127/199/203 50/200/142 49/202/140
f 129/203/205 128/204/204 49/205/140 48/206/137
f 130/207/206 129/203/205 48/206/137 47/208/136
f 131/209/207 130/207/206 47/208/136 58/210/158
f 120/186/197 131/209/207 58/210/158 57/187/156
f 133/211/118 132/212/120 120/186/197 121/185/196
f 134/213/116 133/211/118 121/185/196 122/189/198
f 135/214/114 134/213/116 122/189/198 123/191/199
f 136/215/112 135/214/114 123/191/199 124/193/200
f 137/216/110 136/215/112 124/193/200 125/195/201
f 138/217/108 137/216/110 125/195/201 126/197/202
f 139/218/106 138/217/108 126/197/202 127/199/203
f 140/219/104 139/218/106 127/199/203 128/201/204
f 141/220/101 140/221/104 128/204/204 129/203/205
f 142/222/102 141/220/101 129/203/205 130/207/206
f 143/223/122 142/222/102 130/207/206 131/209/207
f 132/212/120 143/223/122 131/209/207 120/186/197
f 109/173/185 108/172/184 144/224/208 145/225/209
f 110/174/186 109/173/185 145/225/209 146/226/210
f 111/176/187 110/175/186 146/227/210 147/228/211
f 112/177/188 111/176/187 147/228/211 148/229/212
f 113/178/189 112/177/188 148/229/212 149/230/213
f 114/179/190 113/178/189 149/230/213 150/231/214
f 115/180/191 114/179/190 150/231/214 151/232/215
f 116/181/192 115/180/191 151/232/215 152/233/216
f 117/182/193 116/181/192 152/233/216 153/234/217
f 118/183/194 117/182/193 153/234/217 154/235/218
f 119/184/195 118/183/194 154/235/218 155/236/219
f 108/172/184 119/184/195 155/236/219 144/224/208
s off
f 157/237/220 158/238/221 160/239/222 159/240/223
f 156/241/224 161/242/225 160/239/226 158/238/227
f 159/243/228 160/244/229 161/245/230
f 157/246/231 156/247/232 158/248/233
