# This file uses meters as units for non-parametric coordinates.

mtllib Bunker.mtl
g default
v -85.673622 0.000000 105.638123
v 85.673622 0.000000 105.638123
v -47.102329 89.100235 58.078552
v 47.102329 89.100235 58.078552
v -47.102329 89.100235 -58.078552
v 47.102329 89.100235 -58.078552
v -85.673622 0.000000 -105.638123
v 85.673622 0.000000 -105.638123
v -73.010605 89.100235 0.000000
v -132.797729 0.000000 0.000000
v 132.797729 0.000000 0.000000
v 73.010605 89.100235 0.000000
v -63.008801 52.356052 77.691711
v -97.666306 52.356052 0.000000
v -63.008801 52.356052 -77.691711
v 63.008801 52.356052 -77.691711
v 97.666306 52.356052 0.000000
v 63.008801 52.356052 77.691711
v 24.690697 52.356052 77.691711
v -24.690699 52.356052 77.691742
v 24.690695 0.000000 105.638123
v -24.690695 0.000000 105.638123
v 103.452393 39.302212 7.790955
v 73.091072 39.302216 75.852081
v 97.537506 47.159508 9.231598
v 70.028748 47.159508 70.897766
v -103.452393 39.302216 7.790955
v -73.091072 39.302219 75.852081
v -70.028748 47.159508 70.897766
v -97.537506 47.159512 9.231598
v -90.944145 0.000000 112.136841
v 90.944145 0.000000 112.136841
v -50.000000 94.581558 61.651489
v 50.000000 94.581558 61.651489
v -50.000000 94.581558 -61.651489
v 50.000000 94.581558 -61.651489
v -90.944145 0.000000 -112.136841
v 90.944145 0.000000 -112.136841
v -77.502121 94.581558 0.000000
v -140.967270 0.000000 0.000000
v 140.967270 0.000000 0.000000
v 77.502121 94.581558 0.000000
v -66.885017 55.576923 82.471222
v -103.674606 55.576923 0.000000
v -66.885017 55.576923 -82.471222
v 66.885017 55.576923 -82.471222
v 103.674606 55.576923 0.000000
v 66.885017 55.576923 82.471222
v 26.209635 55.576923 82.471191
v -26.209637 55.576923 82.471222
v 26.209633 0.000000 112.136841
v -26.209633 0.000000 112.136841
v 109.816643 41.720032 8.270264
v 77.587532 41.720032 80.518402
v 103.537880 50.060699 9.799500
v 74.336823 50.060696 75.259277
v -109.816643 41.720032 8.270264
v -77.587532 41.720039 80.518402
v -74.336823 50.060699 75.259277
v -103.537880 50.060699 9.799500
vt 0.393373 0.587050
vt 0.951367 0.089332
vt 0.214612 0.713181
vt 0.265416 0.635924
vt 0.606137 0.635277
vt 0.682688 0.583579
vt 0.047458 0.826211
vt 0.138981 0.813711
vt 0.512936 0.553947
vt 0.586292 0.841515
vt 0.154230 0.690958
vt 0.200106 0.841515
vt 0.913696 0.173781
vt 0.203212 0.804942
vt 0.393373 0.522221
vt 0.222197 0.587603
vt 0.749202 0.265719
vt 0.821004 0.265719
vt 0.268626 0.995117
vt 0.243459 0.487110
vt 0.476609 0.004884
vt 0.393366 0.429840
vt 0.855809 0.212666
vt 0.753325 0.177456
vt 0.744570 0.165956
vt 0.869413 0.208522
vt 0.942903 0.205637
vt 0.840419 0.240847
vt 0.826815 0.236703
vt 0.738339 0.194138
vt 0.507907 0.206877
vt 0.372079 0.258757
vt 0.277209 0.233583
vt 0.200106 0.094527
vt 0.102038 0.018141
vt 0.146225 0.207563
vt 0.064965 0.262441
vt 0.004883 0.004883
vt 0.717275 0.182070
vt 0.625934 0.148457
vt 0.245159 0.293896
vt 0.199486 0.379844
vt 0.385499 0.184171
vt 0.573938 0.027461
vt 0.553784 0.258170
vt 0.372078 0.327574
vt 0.746993 0.257339
vt 0.823213 0.257339
vt 0.372086 0.425638
vt 0.402598 0.014333
vt 0.619155 0.331269
vt 0.531215 0.364845
vt 0.747302 0.185343
vt 0.856091 0.222718
vt 0.964450 0.173136
vt 0.870532 0.218320
vt 0.840137 0.250900
vt 0.948926 0.213524
vt 0.825696 0.246501
vt 0.958220 0.201317
vt 0.661165 0.289348
vt 0.460017 0.392040
vt 0.909040 0.289348
vt 0.478818 0.014333
vt 0.517772 0.995117
vt 0.160616 0.518741
vt 0.901858 0.295874
vt 0.310531 0.461491
vt 0.668348 0.295874
vt 0.404807 0.004884
vt 0.153302 0.675578
vt 0.957889 0.165956
vt 0.255310 0.306722
vt 0.738008 0.173136
vt 0.503374 0.541865
vt 0.951658 0.194138
vt 0.626918 0.164783
vt 0.731778 0.201317
vt 0.641958 0.167792
vt 0.569657 0.251857
vt 0.578759 0.263898
vt 0.357282 0.348493
vt 0.356039 0.333450
vt 0.246105 0.318991
vt 0.498532 0.279274
vt 0.427330 0.306470
vt 0.642120 0.018152
vt 0.739273 0.004883
vt 0.425488 0.094527
vt 0.203253 0.169048
vt 0.561837 0.124866
vt 0.170222 0.027446
vt 0.240095 0.184171
vt 0.385499 0.004884
vt 0.240095 0.004884
vt 0.512046 0.530307
vt 0.408483 0.516686
vt 0.407312 0.502515
vt 0.198671 0.582207
vt 0.207245 0.593551
vt 0.139133 0.672744
vt 0.341323 0.542102
vt 0.274247 0.567723
vt 0.647764 0.813721
vt 0.268626 0.687913
vt 0.739288 0.826211
vt 0.739047 0.089332
vt 0.583531 0.804955
vt 0.776718 0.173781
vt 0.068182 0.659292
vt 0.555963 0.472980
vt 0.482745 0.610765
vt 0.552414 0.671560
vt 0.517772 0.687913
vt 0.776718 0.004884
vt 0.913696 0.004884
vn 0.000000 -1.000000 0.000000
vn 0.000000 -1.000000 0.000000
vn 0.000000 -1.000000 0.000000
vn 0.000000 -1.000000 0.000000
vn 0.000000 -0.470892 0.882191
vn 0.000000 -0.470892 0.882191
vn 0.000000 -0.470892 0.882191
vn 0.000000 -0.470892 0.882191
vn 0.778676 -0.522499 0.347360
vn 0.778676 -0.522499 0.347360
vn 0.778676 -0.522499 0.347360
vn 0.778676 -0.522499 0.347359
vn -0.778676 -0.522499 0.347360
vn -0.778676 -0.522499 0.347360
vn -0.778676 -0.522499 0.347360
vn -0.778676 -0.522499 0.347360
vn 0.000000 -1.000000 0.000000
vn 0.000000 -1.000000 0.000000
vn 0.777741 -0.526484 -0.343414
vn 0.778676 -0.522499 -0.347360
vn 0.778676 -0.522499 -0.347360
vn 0.775055 -0.526450 -0.349487
vn 0.778676 -0.522499 0.347360
vn 0.778676 -0.522499 0.347360
vn 0.000000 -0.470892 0.882191
vn 0.000000 -0.470892 0.882191
vn -0.778676 -0.522499 0.347360
vn -0.778676 -0.522499 0.347360
vn -0.775055 -0.526450 -0.349487
vn -0.778676 -0.522499 -0.347360
vn -0.778676 -0.522499 -0.347360
vn -0.777741 -0.526484 -0.343414
vn 0.000000 -0.470892 -0.882191
vn 0.000000 -0.470892 -0.882191
vn 0.000000 -0.470892 -0.882191
vn 0.000001 -0.470892 -0.882191
vn 0.000001 -0.470892 -0.882191
vn 0.000001 -0.470892 -0.882191
vn -0.000000 -0.470892 -0.882191
vn -0.000000 -0.470892 -0.882191
vn -0.000000 -0.470892 -0.882191
vn -0.000000 -0.470892 -0.882191
vn 0.000000 -0.470892 -0.882191
vn 0.000000 -0.470892 -0.882191
vn 0.000000 -0.470892 -0.882191
vn 0.000000 -0.470892 -0.882191
vn 0.000000 -0.470892 -0.882191
vn 0.000000 -0.470892 -0.882191
vn 0.000000 -0.470892 -0.882191
vn 0.000000 -0.470892 -0.882191
vn -0.782379 -0.515432 -0.349589
vn -0.779991 -0.517008 -0.352587
vn -0.783604 -0.516933 -0.344594
vn -0.782805 -0.515375 -0.348719
vn -0.761777 -0.560864 -0.324233
vn -0.751401 -0.559383 -0.349982
vn 0.782805 -0.515375 -0.348719
vn 0.783604 -0.516933 -0.344594
vn 0.779991 -0.517008 -0.352587
vn 0.782379 -0.515432 -0.349589
vn 0.751401 -0.559383 -0.349982
vn 0.761777 -0.560865 -0.324233
vn 0.000000 1.000000 0.000000
vn 0.000000 1.000000 0.000000
vn 0.000000 1.000000 0.000000
vn 0.000000 1.000000 0.000000
vn 0.000000 0.470892 -0.882191
vn 0.000000 0.470892 -0.882191
vn 0.000000 0.470892 -0.882191
vn 0.000000 0.470892 -0.882191
vn -0.778676 0.522499 -0.347360
vn -0.778676 0.522499 -0.347360
vn -0.778676 0.522499 -0.347360
vn -0.778676 0.522499 -0.347359
vn 0.778676 0.522499 -0.347360
vn 0.778676 0.522499 -0.347360
vn 0.778676 0.522499 -0.347360
vn 0.778676 0.522499 -0.347360
vn 0.000000 1.000000 0.000000
vn 0.000000 1.000000 0.000000
vn -0.777741 0.526484 0.343414
vn -0.775055 0.526450 0.349487
vn -0.778676 0.522499 0.347360
vn -0.778676 0.522499 0.347359
vn -0.778676 0.522499 -0.347360
vn -0.778676 0.522499 -0.347359
vn 0.000000 0.470892 -0.882191
vn 0.000000 0.470892 -0.882191
vn 0.778676 0.522499 -0.347359
vn 0.778676 0.522499 -0.347360
vn 0.775055 0.526450 0.349487
vn 0.777742 0.526484 0.343414
vn 0.778676 0.522499 0.347360
vn 0.778676 0.522499 0.347359
vn -0.000001 0.470892 0.882191
vn -0.000001 0.470892 0.882191
vn -0.000001 0.470892 0.882191
vn 0.000000 0.470892 0.882191
vn 0.000000 0.470892 0.882191
vn 0.000000 0.470892 0.882191
vn 0.000000 0.470892 0.882191
vn 0.000000 0.470892 0.882191
vn 0.000000 0.470892 0.882191
vn 0.000000 0.470892 0.882191
vn -0.000000 0.470892 0.882191
vn -0.000000 0.470892 0.882191
vn -0.000000 0.470892 0.882191
vn -0.000000 0.470892 0.882191
vn 0.000000 0.470892 0.882191
vn 0.000000 0.470892 0.882191
vn 0.000000 0.470892 0.882191
vn 0.000000 0.470892 0.882191
vn 0.782379 0.515432 0.349589
vn 0.782805 0.515375 0.348719
vn 0.783604 0.516933 0.344594
vn 0.779991 0.517007 0.352587
vn 0.761777 0.560863 0.324234
vn 0.751402 0.559382 0.349982
vn -0.782805 0.515375 0.348719
vn -0.782379 0.515432 0.349589
vn -0.779991 0.517007 0.352587
vn -0.783604 0.516932 0.344594
vn -0.751402 0.559382 0.349982
vn -0.761777 0.560864 0.324234
vn 0.340978 0.927684 -0.152107
vn 0.340978 0.927684 -0.152107
vn 0.340978 0.927684 -0.152107
vn 0.340978 0.927684 -0.152107
vn 0.004323 -0.183488 0.983012
vn 0.004323 -0.183488 0.983012
vn 0.004323 -0.183488 0.983012
vn 0.004323 -0.183488 0.983012
vn -0.413610 -0.891562 0.184508
vn -0.413610 -0.891563 0.184508
vn -0.413610 -0.891563 0.184508
vn -0.413610 -0.891563 0.184508
vn -0.745612 -0.122430 -0.655037
vn -0.745612 -0.122430 -0.655037
vn -0.745612 -0.122430 -0.655037
vn -0.745612 -0.122430 -0.655037
vn 0.745612 -0.122429 -0.655037
vn 0.745612 -0.122429 -0.655037
vn 0.745612 -0.122429 -0.655037
vn 0.745612 -0.122429 -0.655037
vn 0.413610 -0.891563 0.184508
vn 0.413610 -0.891563 0.184508
vn 0.413610 -0.891563 0.184508
vn 0.413610 -0.891563 0.184508
vn -0.004322 -0.183488 0.983012
vn -0.004322 -0.183488 0.983012
vn -0.004322 -0.183488 0.983012
vn -0.004322 -0.183488 0.983012
vn -0.340978 0.927684 -0.152106
vn -0.340978 0.927684 -0.152106
vn -0.340978 0.927684 -0.152106
vn -0.340978 0.927684 -0.152106
vn 0.966649 0.120598 0.225934
vn 0.966649 0.120598 0.225934
vn 0.966649 0.120598 0.225934
vn 0.966649 0.120598 0.225934
vn 0.000000 -0.829273 0.558844
vn 0.000000 -0.829273 0.558844
vn 0.000000 -0.829273 0.558844
vn 0.000000 -0.829273 0.558844
vn -0.966649 0.120598 0.225934
vn -0.966649 0.120598 0.225934
vn -0.966649 0.120598 0.225934
vn -0.966649 0.120598 0.225934
vn 0.000000 1.000000 0.000000
vn 0.000000 1.000000 0.000000
vn 0.000000 1.000000 0.000000
vn 0.000000 1.000000 0.000000
vn 0.000000 1.000000 0.000000
vn 0.000000 1.000000 0.000000
vn 0.000000 1.000000 0.000000
vn 0.000000 1.000000 0.000000
vn 0.000000 1.000000 0.000000
vn 0.000000 1.000000 0.000000
vn 0.000000 1.000000 0.000000
vn 0.000000 1.000000 0.000000
s 1
g Bunker
usemtl initialShadingGroup
f 3/116/1 9/2/2 12/107/3 4/115/4
s 2
f 15/5/5 7/6/6 8/106/7 16/104/8
s 3
f 7/6/9 15/5/10 14/9/11 10/111/12
s 4
f 17/11/13 16/8/14 8/7/15 11/110/16
s 1
f 9/2/2 5/13/17 6/109/18 12/107/3
s 5
f 14/9/19 9/112/20 3/1/21 13/15/22
s 3
f 15/5/10 5/113/23 9/112/24 14/9/11
s 2
f 5/113/25 15/5/5 16/104/8 6/108/26
s 4
f 12/3/27 6/14/28 16/8/14 17/11/13
s 6
f 18/16/29 4/4/30 12/3/31 17/11/32
s off
f 4/4/33 18/16/34 19/103/35
f 13/15/36 3/1/37 20/102/38
f 3/1/39 4/4/40 19/103/41 20/102/42
f 2/66/43 21/20/44 19/103/45 18/16/46
f 13/15/47 20/102/48 22/68/49 1/22/50
s 6
f 2/66/51 24/99/52 23/101/53 11/110/54
f 11/110/54 23/101/53 25/71/55 17/11/32
f 17/11/32 25/71/55 26/100/56 18/16/29
f 18/16/29 26/100/56 24/99/52 2/66/51
s 5
f 10/111/57 27/96/58 28/98/59 1/22/60
f 1/22/60 28/98/59 29/97/61 13/15/22
f 13/15/22 29/97/61 30/75/62 14/9/19
f 14/9/19 30/75/62 27/96/58 10/111/57
s 9
f 33/95/63 34/94/64 42/89/65 39/34/66
s 10
f 45/35/67 46/36/68 38/37/69 37/38/70
s 11
f 37/88/71 40/39/72 44/40/73 45/87/74
s 12
f 47/41/75 41/42/76 38/37/77 46/36/78
s 9
f 39/34/66 42/89/65 36/43/79 35/93/80
s 13
f 44/40/81 43/45/82 33/31/83 39/91/84
s 11
f 45/87/74 44/40/73 39/91/85 35/44/86
s 10
f 35/92/87 36/90/88 46/36/68 45/35/67
s 12
f 42/33/89 47/41/75 46/36/78 36/90/90
s 14
f 48/46/91 47/41/92 42/33/93 34/32/94
s off
f 34/32/95 49/86/96 48/46/97
f 43/45/98 50/85/99 33/31/100
f 33/31/101 50/85/102 49/86/103 34/32/104
f 32/49/105 48/46/106 49/86/107 51/62/108
f 43/45/109 31/51/110 52/52/111 50/85/112
s 14
f 32/49/113 41/42/114 53/84/115 54/82/116
f 41/42/114 47/41/92 55/73/117 53/84/115
f 47/41/92 48/46/91 56/83/118 55/73/117
f 48/46/91 32/49/113 54/82/116 56/83/118
s 13
f 40/39/119 31/51/120 58/81/121 57/79/122
f 31/51/120 43/45/82 59/80/123 58/81/121
f 43/45/82 44/40/81 60/77/124 59/80/123
f 44/40/81 40/39/119 57/79/122 60/77/124
s off
f 28/28/125 27/27/126 57/58/127 58/57/128
f 27/27/129 30/76/130 60/60/131 57/58/132
f 30/30/133 29/29/134 59/59/135 60/78/136
f 29/29/137 28/28/138 58/57/139 59/59/140
f 24/23/141 26/26/142 56/56/143 54/54/144
f 26/26/145 25/72/146 55/55/147 56/56/148
f 25/25/149 23/24/150 53/53/151 55/74/152
f 23/24/153 24/23/154 54/54/155 53/53/156
f 22/67/157 20/18/158 50/48/159 52/63/160
f 20/18/161 19/17/162 49/47/163 50/48/164
f 19/17/165 21/69/166 51/61/167 49/47/168
f 7/114/169 10/10/170 11/12/171 8/105/172
f 10/10/173 1/65/174 2/19/175 11/12/176
f 51/50/177 21/70/178 22/21/179 52/64/180
