# This file uses meters as units for non-parametric coordinates.

mtllib Terreno.mtl
g default
v 64.261711 27.828640 94.367165
v -64.445839 27.828640 94.367165
v -92.065567 27.828640 66.747513
v -92.065567 27.828640 -66.747437
v -64.445839 27.828640 -94.367165
v 64.261711 27.828640 -94.367165
v 92.065567 27.828640 -66.747437
v 92.065567 27.828640 66.747513
v 64.261711 9.415542 66.747513
v -64.445839 9.415542 66.747513
v 64.261711 9.415542 -66.747437
v -64.445839 9.415542 -66.747437
v -92.065567 41.295818 94.367165
v -92.065567 41.295818 -94.367165
v 92.065567 41.295818 -94.367165
v 92.065567 41.295818 94.367165
vt 0.173386 0.802031
vt 0.174807 0.173637
vt 0.826584 0.174474
vt 0.825258 0.802916
vt 0.838441 0.962467
vt 0.160878 0.964877
vt 0.985291 0.161525
vt 0.987289 0.815649
vt 0.161610 0.014835
vt 0.839088 0.012390
vt 0.014651 0.814882
vt 0.012801 0.160813
vt 0.995117 0.004883
vt 0.005097 0.004930
vt 0.004883 0.972381
vt 0.994912 0.972381
vn 0.000000 1.000000 0.000000
vn 0.000000 1.000000 0.000000
vn 0.000000 1.000000 0.000000
vn 0.000000 1.000000 0.000000
vn -0.552148 0.833746 0.000000
vn -0.552148 0.833746 0.000000
vn 0.000000 0.832050 -0.554700
vn 0.000000 0.832050 -0.554700
vn 0.554699 0.832051 0.000000
vn 0.554699 0.832051 0.000000
vn 0.000000 0.832051 0.554699
vn 0.000000 0.832051 0.554699
vn 0.401410 0.823249 -0.401411
vn 0.401410 0.823249 0.401411
vn -0.399177 0.824126 0.401838
vn -0.399176 0.824126 -0.401839
s 1
g Terreno_BlockOut:Cube
usemtl Terreno_BlockOut:Arena
f 11/1/1 12/2/2 10/3/3 9/4/4
f 8/5/5 7/6/6 11/1/1 9/4/4
f 2/7/7 1/8/8 9/4/4 10/3/3
f 4/9/9 3/10/10 10/3/3 12/2/2
f 6/11/11 5/12/12 12/2/2 11/1/1
f 2/7/7 3/10/10 13/13/13
f 4/9/9 5/12/12 14/14/14
f 6/11/11 7/6/6 15/15/15
f 9/4/4 1/8/8 8/5/5
f 8/5/5 1/8/8 16/16/16
f 10/3/3 3/10/10 2/7/7
f 12/2/2 5/12/12 4/9/9
f 11/1/1 7/6/6 6/11/11
